<mxfile host="app.diagrams.net" modified="2021-09-30T10:00:27.001Z" agent="5.0 (X11; Linux x86_64) AppleWebKit/537.36 (KHTML, like Gecko) Chrome/94.0.4606.61 Safari/537.36 Edg/94.0.992.31" etag="g4F2BX9LYhwEEDFIzBOw" version="15.3.5" type="github">
  <diagram id="jtOyp4K9K5DA3yggwzse" name="Page-1">
    <mxGraphModel dx="2177" dy="773" grid="1" gridSize="10" guides="1" tooltips="1" connect="1" arrows="1" fold="1" page="1" pageScale="1" pageWidth="827" pageHeight="1169" math="0" shadow="0">
      <root>
        <mxCell id="0" />
        <mxCell id="1" parent="0" />
        <mxCell id="GNvqotT4K63oFkcPuCiH-11" style="edgeStyle=none;curved=1;rounded=0;orthogonalLoop=1;jettySize=auto;html=1;endArrow=open;startSize=14;endSize=14;sourcePerimeterSpacing=8;targetPerimeterSpacing=8;strokeColor=#FFB570;strokeWidth=3;" edge="1" parent="1" source="GNvqotT4K63oFkcPuCiH-1">
          <mxGeometry relative="1" as="geometry">
            <mxPoint x="200" y="520" as="targetPoint" />
          </mxGeometry>
        </mxCell>
        <mxCell id="GNvqotT4K63oFkcPuCiH-18" style="edgeStyle=none;curved=1;rounded=0;orthogonalLoop=1;jettySize=auto;html=1;endArrow=open;startSize=14;endSize=14;sourcePerimeterSpacing=8;targetPerimeterSpacing=8;entryX=0.455;entryY=-0.05;entryDx=0;entryDy=0;entryPerimeter=0;strokeColor=#F19C99;strokeWidth=3;" edge="1" parent="1" source="GNvqotT4K63oFkcPuCiH-1" target="GNvqotT4K63oFkcPuCiH-8">
          <mxGeometry relative="1" as="geometry">
            <mxPoint x="530" y="510" as="targetPoint" />
          </mxGeometry>
        </mxCell>
        <mxCell id="GNvqotT4K63oFkcPuCiH-1" value="普通函数&lt;br&gt;（函数指针）" style="rounded=0;whiteSpace=wrap;html=1;hachureGap=4;pointerEvents=0;fillColor=#ffe6cc;strokeColor=#d79b00;" vertex="1" parent="1">
          <mxGeometry x="-120" y="120" width="120" height="80" as="geometry" />
        </mxCell>
        <mxCell id="GNvqotT4K63oFkcPuCiH-14" style="edgeStyle=none;curved=1;rounded=0;orthogonalLoop=1;jettySize=auto;html=1;endArrow=open;startSize=14;endSize=14;sourcePerimeterSpacing=8;targetPerimeterSpacing=8;entryX=0.75;entryY=0;entryDx=0;entryDy=0;strokeColor=#FFB570;strokeWidth=3;" edge="1" parent="1" source="GNvqotT4K63oFkcPuCiH-2" target="GNvqotT4K63oFkcPuCiH-7">
          <mxGeometry relative="1" as="geometry">
            <mxPoint x="280" y="510" as="targetPoint" />
          </mxGeometry>
        </mxCell>
        <mxCell id="GNvqotT4K63oFkcPuCiH-16" style="edgeStyle=none;curved=1;rounded=0;orthogonalLoop=1;jettySize=auto;html=1;endArrow=open;startSize=14;endSize=14;sourcePerimeterSpacing=8;targetPerimeterSpacing=8;entryX=0.545;entryY=-0.033;entryDx=0;entryDy=0;entryPerimeter=0;strokeColor=#F19C99;strokeWidth=3;" edge="1" parent="1" source="GNvqotT4K63oFkcPuCiH-2" target="GNvqotT4K63oFkcPuCiH-8">
          <mxGeometry relative="1" as="geometry">
            <mxPoint x="550" y="510" as="targetPoint" />
          </mxGeometry>
        </mxCell>
        <mxCell id="GNvqotT4K63oFkcPuCiH-2" value="lambda函数" style="rounded=0;whiteSpace=wrap;html=1;hachureGap=4;pointerEvents=0;fillColor=#dae8fc;strokeColor=#6c8ebf;" vertex="1" parent="1">
          <mxGeometry x="360" y="120" width="120" height="80" as="geometry" />
        </mxCell>
        <mxCell id="GNvqotT4K63oFkcPuCiH-15" style="edgeStyle=none;curved=1;rounded=0;orthogonalLoop=1;jettySize=auto;html=1;endArrow=open;startSize=14;endSize=14;sourcePerimeterSpacing=8;targetPerimeterSpacing=8;entryX=0.63;entryY=-0.033;entryDx=0;entryDy=0;entryPerimeter=0;strokeColor=#F19C99;strokeWidth=3;" edge="1" parent="1" source="GNvqotT4K63oFkcPuCiH-3" target="GNvqotT4K63oFkcPuCiH-8">
          <mxGeometry relative="1" as="geometry">
            <mxPoint x="560" y="510" as="targetPoint" />
          </mxGeometry>
        </mxCell>
        <mxCell id="GNvqotT4K63oFkcPuCiH-3" value="仿函数" style="rounded=0;whiteSpace=wrap;html=1;hachureGap=4;pointerEvents=0;fillColor=#d5e8d4;strokeColor=#82b366;" vertex="1" parent="1">
          <mxGeometry x="520" y="120" width="120" height="80" as="geometry" />
        </mxCell>
        <mxCell id="GNvqotT4K63oFkcPuCiH-10" style="edgeStyle=none;curved=1;rounded=0;orthogonalLoop=1;jettySize=auto;html=1;endArrow=open;startSize=14;endSize=14;sourcePerimeterSpacing=8;targetPerimeterSpacing=8;strokeColor=#B5739D;strokeWidth=3;entryX=0.5;entryY=0;entryDx=0;entryDy=0;" edge="1" parent="1" source="GNvqotT4K63oFkcPuCiH-4" target="GNvqotT4K63oFkcPuCiH-6">
          <mxGeometry relative="1" as="geometry">
            <mxPoint x="-20" y="520" as="targetPoint" />
          </mxGeometry>
        </mxCell>
        <mxCell id="GNvqotT4K63oFkcPuCiH-12" style="edgeStyle=none;curved=1;rounded=0;orthogonalLoop=1;jettySize=auto;html=1;endArrow=open;startSize=14;endSize=14;sourcePerimeterSpacing=8;targetPerimeterSpacing=8;strokeColor=#B5739D;strokeWidth=3;" edge="1" parent="1" source="GNvqotT4K63oFkcPuCiH-4">
          <mxGeometry relative="1" as="geometry">
            <mxPoint x="233" y="518" as="targetPoint" />
          </mxGeometry>
        </mxCell>
        <mxCell id="GNvqotT4K63oFkcPuCiH-4" value="类-普通成员函数" style="rounded=0;whiteSpace=wrap;html=1;hachureGap=4;pointerEvents=0;fillColor=#fff2cc;strokeColor=#d6b656;" vertex="1" parent="1">
          <mxGeometry x="40" y="120" width="120" height="80" as="geometry" />
        </mxCell>
        <mxCell id="GNvqotT4K63oFkcPuCiH-30" style="edgeStyle=none;curved=1;rounded=0;orthogonalLoop=1;jettySize=auto;html=1;entryX=0.5;entryY=0;entryDx=0;entryDy=0;fontFamily=Helvetica;endArrow=open;startSize=14;endSize=14;sourcePerimeterSpacing=8;targetPerimeterSpacing=8;strokeColor=#F19C99;strokeWidth=3;" edge="1" parent="1" source="GNvqotT4K63oFkcPuCiH-5" target="GNvqotT4K63oFkcPuCiH-8">
          <mxGeometry relative="1" as="geometry" />
        </mxCell>
        <mxCell id="GNvqotT4K63oFkcPuCiH-13" style="edgeStyle=none;curved=1;rounded=0;orthogonalLoop=1;jettySize=auto;html=1;endArrow=open;startSize=14;endSize=14;sourcePerimeterSpacing=8;targetPerimeterSpacing=8;strokeColor=#FFB570;strokeWidth=3;" edge="1" parent="1" source="GNvqotT4K63oFkcPuCiH-5">
          <mxGeometry relative="1" as="geometry">
            <mxPoint x="260" y="518" as="targetPoint" />
          </mxGeometry>
        </mxCell>
        <mxCell id="GNvqotT4K63oFkcPuCiH-31" style="edgeStyle=none;curved=1;rounded=0;orthogonalLoop=1;jettySize=auto;html=1;entryX=0.5;entryY=0;entryDx=0;entryDy=0;fontFamily=Helvetica;endArrow=open;startSize=14;endSize=14;sourcePerimeterSpacing=8;targetPerimeterSpacing=8;strokeColor=#FFB570;strokeWidth=3;fillColor=#fad7ac;" edge="1" parent="1" source="GNvqotT4K63oFkcPuCiH-5" target="GNvqotT4K63oFkcPuCiH-7">
          <mxGeometry relative="1" as="geometry" />
        </mxCell>
        <mxCell id="GNvqotT4K63oFkcPuCiH-5" value="类-静态成员函数" style="rounded=0;whiteSpace=wrap;html=1;hachureGap=4;pointerEvents=0;fillColor=#f8cecc;strokeColor=#b85450;" vertex="1" parent="1">
          <mxGeometry x="200" y="120" width="120" height="80" as="geometry" />
        </mxCell>
        <mxCell id="GNvqotT4K63oFkcPuCiH-6" value="&lt;font style=&quot;font-size: 15px&quot;&gt;std::mem_fn&lt;/font&gt;" style="rounded=1;whiteSpace=wrap;html=1;hachureGap=4;pointerEvents=0;fillColor=#e1d5e7;strokeColor=#9673a6;" vertex="1" parent="1">
          <mxGeometry x="-80" y="520" width="120" height="60" as="geometry" />
        </mxCell>
        <mxCell id="GNvqotT4K63oFkcPuCiH-17" style="edgeStyle=none;curved=1;rounded=0;orthogonalLoop=1;jettySize=auto;html=1;endArrow=open;startSize=14;endSize=14;sourcePerimeterSpacing=8;targetPerimeterSpacing=8;" edge="1" parent="1" source="GNvqotT4K63oFkcPuCiH-7">
          <mxGeometry relative="1" as="geometry">
            <mxPoint x="430" y="550" as="targetPoint" />
          </mxGeometry>
        </mxCell>
        <mxCell id="GNvqotT4K63oFkcPuCiH-7" value="&lt;font style=&quot;font-size: 16px&quot;&gt;std::bind&lt;/font&gt;" style="rounded=1;whiteSpace=wrap;html=1;hachureGap=4;pointerEvents=0;fillColor=#fad7ac;strokeColor=#b46504;sketch=0;glass=0;" vertex="1" parent="1">
          <mxGeometry x="180" y="520" width="160" height="60" as="geometry" />
        </mxCell>
        <mxCell id="GNvqotT4K63oFkcPuCiH-8" value="&lt;font style=&quot;font-size: 17px&quot;&gt;std::function&lt;/font&gt;" style="rounded=1;whiteSpace=wrap;html=1;hachureGap=4;pointerEvents=0;fillColor=#fad9d5;strokeColor=#ae4132;" vertex="1" parent="1">
          <mxGeometry x="440" y="520" width="200" height="60" as="geometry" />
        </mxCell>
        <mxCell id="GNvqotT4K63oFkcPuCiH-20" value="" style="curved=1;endArrow=classic;html=1;startSize=14;endSize=14;sourcePerimeterSpacing=8;targetPerimeterSpacing=8;strokeColor=#F19C99;strokeWidth=3;exitX=0.5;exitY=1;exitDx=0;exitDy=0;entryX=0.54;entryY=1;entryDx=0;entryDy=0;entryPerimeter=0;dashed=1;" edge="1" parent="1" source="GNvqotT4K63oFkcPuCiH-6" target="GNvqotT4K63oFkcPuCiH-8">
          <mxGeometry width="50" height="50" relative="1" as="geometry">
            <mxPoint x="230" y="720" as="sourcePoint" />
            <mxPoint x="280" y="670" as="targetPoint" />
            <Array as="points">
              <mxPoint x="90" y="670" />
              <mxPoint x="230" y="670" />
              <mxPoint x="410" y="670" />
            </Array>
          </mxGeometry>
        </mxCell>
        <mxCell id="GNvqotT4K63oFkcPuCiH-23" value="&lt;font style=&quot;font-size: 17px&quot;&gt;X&lt;/font&gt;" style="edgeLabel;html=1;align=center;verticalAlign=middle;resizable=0;points=[];fontFamily=Helvetica;" vertex="1" connectable="0" parent="GNvqotT4K63oFkcPuCiH-20">
          <mxGeometry x="0.0437" relative="1" as="geometry">
            <mxPoint as="offset" />
          </mxGeometry>
        </mxCell>
        <mxCell id="GNvqotT4K63oFkcPuCiH-24" value="" style="shape=flexArrow;endArrow=classic;startArrow=classic;html=1;fontFamily=Helvetica;startSize=6.67;endSize=6.67;sourcePerimeterSpacing=8;targetPerimeterSpacing=8;strokeColor=#B5739D;strokeWidth=3;exitX=1;exitY=0.5;exitDx=0;exitDy=0;entryX=0;entryY=0.5;entryDx=0;entryDy=0;width=2;endWidth=16;startWidth=16;" edge="1" parent="1" source="GNvqotT4K63oFkcPuCiH-6" target="GNvqotT4K63oFkcPuCiH-7">
          <mxGeometry width="100" height="100" relative="1" as="geometry">
            <mxPoint x="60" y="570" as="sourcePoint" />
            <mxPoint x="160" y="470" as="targetPoint" />
          </mxGeometry>
        </mxCell>
        <mxCell id="GNvqotT4K63oFkcPuCiH-25" value="&lt;font style=&quot;font-size: 14px&quot; color=&quot;#ea6b66&quot;&gt;&lt;i&gt;&lt;b&gt;封装成员函数&lt;br&gt;二者效果相同&lt;/b&gt;&lt;/i&gt;&lt;/font&gt;" style="text;html=1;strokeColor=none;fillColor=none;align=center;verticalAlign=middle;whiteSpace=wrap;rounded=0;glass=0;sketch=0;hachureGap=4;pointerEvents=0;fontFamily=Helvetica;" vertex="1" parent="1">
          <mxGeometry x="60" y="575" width="100" height="20" as="geometry" />
        </mxCell>
        <mxCell id="GNvqotT4K63oFkcPuCiH-27" value="&lt;font color=&quot;#ea6b66&quot;&gt;&lt;span style=&quot;font-size: 14px&quot;&gt;&lt;b&gt;&lt;i&gt;此路不通&lt;/i&gt;&lt;/b&gt;&lt;/span&gt;&lt;/font&gt;" style="text;html=1;strokeColor=none;fillColor=none;align=center;verticalAlign=middle;whiteSpace=wrap;rounded=0;glass=0;sketch=0;hachureGap=4;pointerEvents=0;fontFamily=Helvetica;" vertex="1" parent="1">
          <mxGeometry x="220" y="680" width="100" height="30" as="geometry" />
        </mxCell>
      </root>
    </mxGraphModel>
  </diagram>
</mxfile>
